HIERARCHY
ROOT hip
{
  OFFSET 0 0 0
  CHANNELS 6 Xposition Yposition Zposition Zrotation Yrotation Xrotation
  JOINT abdomen
  {
    OFFSET 0 20.6881 -0.73152
    CHANNELS 3 Zrotation Xrotation Yrotation
    JOINT chest
    {
      OFFSET 0 11.7043 -0.48768
      CHANNELS 3 Zrotation Xrotation Yrotation
      JOINT neck
      {
        OFFSET 0 22.1894 -2.19456
        CHANNELS 3 Zrotation Xrotation Yrotation
        JOINT head
        {
          OFFSET -0.24384 7.07133 1.2192
          CHANNELS 3 Zrotation Xrotation Yrotation
          JOINT leftEye
          {
            OFFSET 4.14528 8.04674 8.04672
            CHANNELS 3 Zrotation Xrotation Yrotation
            End Site
            {
              OFFSET 1 0 0
            }
          }
          JOINT rightEye
          {
            OFFSET -3.6576 8.04674 8.04672
            CHANNELS 3 Zrotation Xrotation Yrotation
            End Site
            {
              OFFSET 1 0 0
            }
          }
        }
      }
      JOINT rCollar
      {
        OFFSET -2.68224 19.2634 -4.8768
        CHANNELS 3 Zrotation Xrotation Yrotation
        JOINT rShldr
        {
          OFFSET -8.77824 -1.95073 1.46304
          CHANNELS 3 Zrotation Xrotation Yrotation
          JOINT rForeArm
          {
            OFFSET -28.1742 -1.7115 0.48768
            CHANNELS 3 Zrotation Xrotation Yrotation
            JOINT rHand
            {
              OFFSET -22.5879 0.773209 7.07136
              CHANNELS 3 Zrotation Xrotation Yrotation
              JOINT rThumb1
              {
                OFFSET -1.2192 -0.487915 3.41376
                CHANNELS 3 Zrotation Xrotation Yrotation
                JOINT rThumb2
                {
                  OFFSET -3.37035 -0.52449 3.41376
                  CHANNELS 3 Zrotation Xrotation Yrotation
                  End Site
                  {
                    OFFSET -1.78271 -1.18214 1.43049
                  }
                }
              }
              JOINT rIndex1
              {
                OFFSET -7.75947 0.938293 5.60832
                CHANNELS 3 Zrotation Xrotation Yrotation
                JOINT rIndex2
                {
                  OFFSET -2.54057 -0.884171 1.56538
                  CHANNELS 3 Zrotation Xrotation Yrotation
                  End Site
                  {
                    OFFSET -1.62519 -0.234802 1.16502
                  }
                }
              }
              JOINT rMid1
              {
                OFFSET -8.24714 1.18213 3.41376
                CHANNELS 3 Zrotation Xrotation Yrotation
                JOINT rMid2
                {
                  OFFSET -3.10165 -0.590103 1.0647
                  CHANNELS 3 Zrotation Xrotation Yrotation
                  End Site
                  {
                    OFFSET -2.48547 -0.328903 0.83742
                  }
                }
              }
              JOINT rRing1
              {
                OFFSET -8.82822 0.546677 1.51678
                CHANNELS 3 Zrotation Xrotation Yrotation
                JOINT rRing2
                {
                  OFFSET -2.60934 -0.819778 -0.0198488
                  CHANNELS 3 Zrotation Xrotation Yrotation
                  End Site
                  {
                    OFFSET -2.33842 -0.294052 0.168128
                  }
                }
              }
              JOINT rPinky1
              {
                OFFSET -8.27202 -0.0477905 -0.4584
                CHANNELS 3 Zrotation Xrotation Yrotation
                JOINT rPinky2
                {
                  OFFSET -1.82734 -0.647385 -0.700984
                  CHANNELS 3 Zrotation Xrotation Yrotation
                  End Site
                  {
                    OFFSET -1.69225 -0.51767 -0.607171
                  }
                }
              }
            }
          }
        }
      }
      JOINT lCollar
      {
        OFFSET 2.68224 19.2634 -4.8768
        CHANNELS 3 Zrotation Xrotation Yrotation
        JOINT lShldr
        {
          OFFSET 8.77824 -1.95073 1.46304
          CHANNELS 3 Zrotation Xrotation Yrotation
          JOINT lForeArm
          {
            OFFSET 28.1742 -1.7115 0.48768
            CHANNELS 3 Zrotation Xrotation Yrotation
            JOINT lHand
            {
              OFFSET 22.5879 0.773209 7.07136
              CHANNELS 3 Zrotation Xrotation Yrotation
              JOINT lThumb1
              {
                OFFSET 1.2192 -0.487915 3.41376
                CHANNELS 3 Zrotation Xrotation Yrotation
                JOINT lThumb2
                {
                  OFFSET 3.37035 -0.52449 3.41376
                  CHANNELS 3 Zrotation Xrotation Yrotation
                  End Site
                  {
                    OFFSET 1.78271 -1.18214 1.43049
                  }
                }
              }
              JOINT lIndex1
              {
                OFFSET 7.75947 0.938293 5.60832
                CHANNELS 3 Zrotation Xrotation Yrotation
                JOINT lIndex2
                {
                  OFFSET 2.54057 -0.884171 1.56538
                  CHANNELS 3 Zrotation Xrotation Yrotation
                  End Site
                  {
                    OFFSET 1.62519 -0.234802 1.16502
                  }
                }
              }
              JOINT lMid1
              {
                OFFSET 8.24714 1.18213 3.41376
                CHANNELS 3 Zrotation Xrotation Yrotation
                JOINT lMid2
                {
                  OFFSET 3.10165 -0.590103 1.0647
                  CHANNELS 3 Zrotation Xrotation Yrotation
                  End Site
                  {
                    OFFSET 2.48547 -0.328903 0.83742
                  }
                }
              }
              JOINT lRing1
              {
                OFFSET 8.82822 0.546677 1.51678
                CHANNELS 3 Zrotation Xrotation Yrotation
                JOINT lRing2
                {
                  OFFSET 2.60934 -0.819778 -0.0198488
                  CHANNELS 3 Zrotation Xrotation Yrotation
                  End Site
                  {
                    OFFSET 2.33842 -0.294052 0.168128
                  }
                }
              }
              JOINT lPinky1
              {
                OFFSET 8.27202 -0.0477905 -0.4584
                CHANNELS 3 Zrotation Xrotation Yrotation
                JOINT lPinky2
                {
                  OFFSET 1.82734 -0.647385 -0.700984
                  CHANNELS 3 Zrotation Xrotation Yrotation
                  End Site
                  {
                    OFFSET 1.69225 -0.51767 -0.607171
                  }
                }
              }
            }
          }
        }
      }
    }
  }
  JOINT rButtock
  {
    OFFSET -8.77824 4.35084 1.2192
    CHANNELS 3 Zrotation Xrotation Yrotation
    JOINT rThigh
    {
      OFFSET 0 -1.70687 -2.19456
      CHANNELS 3 Zrotation Xrotation Yrotation
      JOINT rShin
      {
        OFFSET 0 -36.8199 0.73152
        CHANNELS 3 Zrotation Xrotation Yrotation
        JOINT rFoot
        {
          OFFSET 0.73152 -45.1104 -5.12064
          CHANNELS 3 Zrotation Xrotation Yrotation
          End Site
          {
            OFFSET -1.1221 -3.69964 12.103
          }
        }
      }
    }
  }
  JOINT lButtock
  {
    OFFSET 8.77824 4.35084 1.2192
    CHANNELS 3 Zrotation Xrotation Yrotation
    JOINT lThigh
    {
      OFFSET 0 -1.70687 -2.19456
      CHANNELS 3 Zrotation Xrotation Yrotation
      JOINT lShin
      {
        OFFSET 0 -36.8199 0.73152
        CHANNELS 3 Zrotation Xrotation Yrotation
        JOINT lFoot
        {
          OFFSET -0.73152 -45.1104 -5.12064
          CHANNELS 3 Zrotation Xrotation Yrotation
          End Site
          {
            OFFSET 1.1221 -3.69964 12.103
          }
        }
      }
    }
  }
}
MOTION
Frames: 4
Frame Time: 0.00833333
0.7137870124455508 85.85960751711264 3.9372482912258864 2.6104215059116367 -3.9005775731176104 -2.98912069695084 -4.248062767890479 4.225258917237087 7.948819520846298 -0.7257583031736154 -0.8538349894212819 2.198947257000622 -3.7866748238954573 13.475461904169261 -4.277496507778469 5.790443088985687 -16.912203559427503 -7.3166794897324205 -0.0 0.0 0.0 -0.0 0.0 0.0 2.010158477909147e-14 -3.689291405102676e-14 -4.5632114113254515e-14 35.109053827006846 7.0580825625388925 31.186104256378346 -26.376951723708775 -45.50440456751711 94.50335673926571 -7.705315101431238 -59.059276415681396 -13.559317261978844 6.274686887367767e-10 8.531572528935905e-10 -1.2972755158680773e-10 1.0857836403235842e-09 1.4859450976975733e-09 -1.9154885650280025e-10 6.2746898892346e-10 8.531529527069072e-10 -1.2974045152457994e-10 7.73091 5.47488 0.417314 6.274675886745489e-10 8.531561528313628e-10 -1.2973045152457996e-10 2.90554 0.965183 0.102902 6.274686887367767e-10 8.531571528313628e-10 -1.2972845152457995e-10 10.2786 0.731801 0.0259123 6.274645886745488e-10 8.531591528313628e-10 -1.2971835146235222e-10 2.22167 -0.733487 -0.20892 1.9940184219041695e-14 -3.6890584032358434e-14 -4.578560684505289e-14 -55.88005147479777 60.517027081518364 -11.190286509023023 28.418697697573116 -34.792034797759804 -75.00092835096454 2.0331245052893587 -36.972216739265704 6.073960021157436 5.3472680024891105e-11 2.5890858655880525e-09 4.090012017423771e-10 7.952473513378967e-11 4.446815495955197e-09 7.064820855009335e-10 5.34715200497822e-11 2.58905686621033e-09 4.0900700161792164e-10 -7.73091 5.47488 -0.417314 5.34731200497822e-11 2.5890768662103298e-09 4.090042017423771e-10 -2.90554 0.965183 -0.102902 5.3474019987554445e-11 2.5890768662103298e-09 4.090002017423771e-10 -10.2786 0.731801 -0.0259123 5.348056001244555e-11 2.58908686621033e-09 4.089922017423771e-10 -2.22167 -0.733487 0.20892 -2.03217e-16 0.0 -3.88251e-19 -4.864770146857498 -9.238209395146235 1.4412105948973242 -0.15443958817672682 28.764076589919107 0.5163379792159303 -5.063732938394524 -14.962132321095208 -13.38674523957685 2.03217e-16 0.0 3.88251e-19 -2.746434372121966 -5.453856979464841 0.950216565899191 0.10417095544492844 25.598146011200992 -0.4788260551337897 5.446261387678905 -17.064406845052893 13.441289371499687 
0.5808244355942751 86.07741126322338 4.232470989421281 2.4031707529558184 -2.961049284380834 -2.9533208462974483 -3.2504843621655257 3.971985687616677 8.264555451151214 -0.7947471014312383 -1.3730111325451149 2.2997930678282517 -4.048032414436839 13.580386869943995 -4.560198867454885 5.283867517112632 -16.016837772246422 -7.963118935905413 -0.0 0.0 0.0 -0.0 0.0 0.0 3.730908942128189e-14 -1.3064149782202862e-13 -4.59057435594275e-14 42.910817423771 8.064379956440572 24.56736714374611 -25.56577454884879 -47.06237784691972 97.85725525824517 -9.260725569383945 -62.02680454262601 -15.345012072184193 -1.0225054822650901e-09 -1.5998654760423148e-09 4.518014044803982e-10 -1.780205500933416e-09 -2.816046397013068e-09 7.219731854387056e-10 -1.02249548226509e-09 -1.5998554760423149e-09 4.5177510392034843e-10 7.73091 5.47488 0.417314 -1.0225054822650901e-09 -1.5998654760423148e-09 4.5179840448039824e-10 2.90554 0.9651829999999999 0.10290199999999998 -1.0224964841319226e-09 -1.5998654760423148e-09 4.51800304293715e-10 10.2786 0.731801 0.0259123 -1.02251548226509e-09 -1.5998564779091475e-09 4.5180800373366524e-10 2.22167 -0.7334869999999999 -0.20892 3.7284887367766024e-14 -1.306362974486621e-13 -4.605592333540759e-14 -54.80313907902924 52.50977548226509 -11.34732769135034 28.218656876166765 -39.00367299315495 -82.17924561294338 3.6344670192906037 -46.358996390790296 8.475150018668325 1.023341200995644e-09 6.789065886745487e-10 2.7173112072184193e-10 1.7559724766645923e-09 1.53951852520224e-09 5.038350883634101e-10 1.0233401991288115e-09 6.789420896079651e-10 2.717474212818917e-10 -7.73091 5.47488 -0.417314 1.023341200995644e-09 6.788856888612322e-10 2.717281207218419e-10 -2.90554 0.9651829999999999 -0.10290199999999998 1.0233312009956442e-09 6.789065886745487e-10 2.717302209085252e-10 -10.2786 0.731801 -0.0259123 1.0233501991288116e-09 6.789047890479154e-10 2.7171812072184187e-10 -2.22167 -0.7334869999999999 0.20892 -2.03217e-16 0.0 -3.8825099999999993e-19 -4.307191281891724 -8.064078238954572 1.3965343683883011 -0.13840233914125702 27.334418855009332 0.4907522352209085 -5.249299097697573 -14.455986558805227 -14.284474735532047 2.03217e-16 0.0 3.8825099999999993e-19 -2.306951163658992 -4.777411437461107 0.3567863764779091 0.09571646110765401 24.569153266957063 -0.4545516415681394 5.233239334163036 -16.596526446795274 13.157525140012444 
0.49303106260112006 86.24840948350965 4.333301894212819 2.1804631487243307 -1.7056401493466082 -2.488878158058494 -2.6952725886745488 3.4077916316116985 7.700983474797759 -0.31751918755444924 -1.4658813963907904 2.1548421344119473 -4.701715836963285 13.621181169881766 -4.643717556938395 5.137995077784692 -15.177389732420659 -8.145283697573118 -0.0 0.0 0.0 -0.0 0.0 0.0 9.65754114374611e-15 1.926986123210952e-14 -1.9269055258245178e-14 49.29906131922837 4.588780470441817 18.824821717486 -25.18496135656503 -47.70000170504045 99.28114858743 -12.667800684505288 -66.77236536403235 -19.11934321095208 2.351957113876789e-10 4.2061433503422525e-10 -1.8901005276913503e-10 4.1356910852520223e-10 7.491913416303671e-10 -3.112872270068451e-10 2.3519481169881765e-10 4.2058563596764155e-10 -1.8902095245799625e-10 7.73091 5.474879999999999 0.41731399999999996 2.351956110765401e-10 4.20586435345364e-10 -1.890168521468575e-10 2.9055399999999993 0.9651829999999999 0.10290199999999998 2.3520291200995646e-10 4.2058553565650276e-10 -1.89007052769135e-10 10.2786 0.731801 0.0259123 2.351864104542626e-10 4.206111344119477e-10 -1.889955512134412e-10 2.22167 -0.733487 -0.20891999999999997 9.629491198506534e-15 1.9268130827629123e-14 -1.9389011014312384e-14 -54.50525685127566 41.8279331051649 -10.979992308649656 27.645826372121967 -41.958074138145605 -87.53015030491599 6.751479998755444 -56.85818400746733 12.433893528313627 9.625203956440573e-12 -6.868741817050404e-10 -3.41351346036092e-11 1.859021705662726e-11 -1.2006593192283759e-09 -5.823956855009334e-11 9.618474897324206e-12 -6.86880479527069e-10 -3.413153391163659e-11 -7.73091 5.474879999999999 -0.41731399999999996 9.625301887990044e-12 -6.868741817050404e-10 -3.413681222401991e-11 -2.9055399999999993 0.9651829999999999 -0.10290199999999998 9.622066211574362e-12 -6.868750813939016e-10 -3.4138167014312376e-11 -10.2786 0.731801 -0.0259123 9.633545115121344e-12 -6.868860845052893e-10 -3.4144918172993154e-11 -2.22167 -0.733487 0.20891999999999997 -2.0321699999999997e-16 0.0 -3.8825099999999993e-19 -4.002704869943995 -7.335773179838207 1.2679955382700685 -0.12520869931549472 26.122184082140635 0.472790106036092 -5.496760850031114 -14.247754897324205 -15.180471835718729 2.0321699999999997e-16 0.0 3.8825099999999993e-19 -2.1141398755444927 -4.7267076378344735 -0.3802922784069695 0.0901495078780336 23.784736639701304 -0.43313642265090224 4.949942867454884 -16.153869060360922 12.650474660858743 
0.4412841055382701 86.44021532047293 4.416757197261979 2.1013917734909766 -0.5612381829495955 -2.060419502177971 -2.3032213914125697 2.6462294026135655 6.9707790180460485 -0.03340009986309894 -1.3848863945239578 1.958747774735532 -5.083195822028625 14.122459029247045 -4.7553442215308035 4.950266766645924 -14.579317635345365 -8.41787574486621 -0.0 0.0 0.0 -0.0 0.0 0.0 -1.0428561057871811e-13 4.4333990230242687e-14 6.082980253889235e-15 54.70245612943373 -1.7486120659614186 13.879087604231486 -25.14842403235843 -47.758779452395764 99.41368160547603 -21.10153359054138 -73.36813205973864 -28.073505326695706 3.565851878033603e-10 5.286772869943995e-10 -5.206782070939639e-11 6.131999317983821e-10 9.186343983820784e-10 -6.579387825762291e-11 3.565831878033603e-10 5.28672383074051e-10 -5.208684036092097e-11 7.73091 5.47488 0.4173140000000001 3.5658328823895455e-10 5.286734835096453e-10 -5.207003205973864e-11 2.9055399999999993 0.965183 0.102902 3.5659408736776605e-10 5.286743830740511e-10 -5.206828053515868e-11 10.2786 0.731801 0.0259123 3.5657928823895457e-10 5.286830861232109e-10 -5.206249144990666e-11 2.22167 -0.733487 -0.20892 -1.0422252321095209e-13 4.4333940448039827e-14 5.9052471188550094e-15 -54.220076813939016 30.406299203484753 -10.04390974486621 27.07683569383945 -43.81072827629122 -91.06418448039825 13.441844803982574 -67.61842673304292 19.95967380211574 -1.2132016888612322e-10 6.548582644679526e-10 6.580000730553828e-11 -2.113027639079029e-10 1.1459333802115743e-09 1.0594978008711885e-10 -1.2132036975731177e-10 6.548344653391412e-10 6.580691734909771e-11 -7.73091 5.47488 -0.4173140000000001 -1.213172693217175e-10 6.548379675171126e-10 6.580189639079029e-11 -2.9055399999999993 0.965183 -0.102902 -1.213232693217175e-10 6.548388670815183e-10 6.580282695706284e-11 -10.2786 0.731801 -0.0259123 -1.2131606845052894e-10 6.548593649035469e-10 6.579382739265714e-11 -2.22167 -0.733487 0.20892 -2.0321700000000002e-16 0.0 -3.88251e-19 -3.793469545737399 -6.944955476042315 1.4103332495332919 -0.1138592816428127 25.01821986309894 0.45792662986932176 -5.818704089607966 -13.953320398257624 -16.372543546981955 2.0321700000000002e-16 0.0 3.88251e-19 -2.0760553553204733 -4.901796887367766 -0.9893733092719352 0.08449163667703796 23.002920784069694 -0.41248296502800247 4.694560565028001 -15.682941817050406 12.217247529558183 
